<?xml version="1.0" encoding="UTF-8"?><svg width="400" height="54" id="Layer_2" xmlns="http://www.w3.org/2000/svg" viewBox="0 0 400 54"><defs><style>.cls-1{fill:#002867;}.cls-2{fill:#f60;}</style></defs><g id="Layer_1-2"><g><g><path class="cls-2" d="M33.95,0H10.43C4.68,0,0,4.64,0,10.38c0,0,0,.01,0,.02V43.6c0,5.74,4.66,10.4,10.41,10.4,0,0,.01,0,.02,0h23.93c14.93-.11,26.94-12.29,26.83-27.2C61.08,11.89,48.88-.11,33.95,0Zm0,48.29H11.87c-3.38-.03-6.1-2.77-6.1-6.15V11.85c0-3.37,2.73-6.11,6.1-6.15h22.49c11.76,.1,21.21,9.7,21.11,21.44-.1,11.74-9.71,21.18-21.46,21.08h0l-.05,.07Z"/><path class="cls-2" d="M33.28,11.84H14.24c-1.58,0-2.86,1.28-2.86,2.85h0c0,1.58,1.28,2.85,2.86,2.85h19.09c5.14-.04,9.4,3.96,9.69,9.09,.2,5.23-3.89,9.63-9.13,9.83-.11,0-.23,0-.34,0H14.24c-1.58,0-2.86,1.28-2.86,2.85,0,.02,0,.04,0,.05h0c0,1.58,1.28,2.85,2.86,2.85h19.32c8.4,0,15.2-6.81,15.19-15.2,0-.11,0-.22,0-.32-.26-8.33-7.13-14.93-15.47-14.86Z"/><path class="cls-2" d="M14.56,24.15h12.52c1.58,0,2.86,1.28,2.86,2.85h0c0,1.58-1.28,2.85-2.86,2.85H14.56c-1.58,0-2.86-1.28-2.86-2.85h0c0-1.58,1.28-2.85,2.86-2.85Z"/></g><path class="cls-1" d="M74.48,14.16c0-.42,.34-.76,.76-.76h16.57c.42,0,.76,.34,.76,.76h0v4.36c0,.42-.34,.76-.76,.76h-11.09v4.94h9.12c.41,.02,.74,.35,.76,.76v4.36c0,.42-.34,.76-.76,.76h-9.12v5.31h11.09c.42,0,.76,.34,.76,.76h0v4.36c0,.42-.34,.76-.76,.76h-16.57c-.42,0-.76-.34-.76-.76h0V14.16Z"/><path class="cls-1" d="M95.17,40.34l12.54-26.91c.13-.26,.39-.43,.67-.44h.39c.29,.02,.55,.19,.69,.44l12.52,26.91c.19,.34,.06,.77-.28,.96-.12,.06-.25,.09-.39,.08h-4.45c-.71,0-1.03-.25-1.4-1.01l-1.49-3.15h-10.84l-1.44,3.19c-.22,.6-.8,1-1.44,.97h-4.4c-.4,.02-.74-.29-.77-.69,0-.12,.02-.25,.07-.36Zm16.46-8.56l-2.98-6.59h0l-3,6.59h5.98Z"/><path class="cls-1" d="M124.26,37.59l1.88-3.31c.33-.42,.91-.52,1.37-.25,1.66,1.22,3.62,1.99,5.68,2.21,1.38,.14,2.62-.87,2.76-2.25,0-.05,0-.1,.01-.16,0-1.77-1.4-2.96-4.12-4.04-3.44-1.36-7.77-4.04-7.77-8.86,0-3.95,3.09-7.95,9.24-7.95,3.1,.08,6.1,1.14,8.57,3.01,.48,.27,.41,.99,.25,1.28l-2.04,3.08c-.28,.43-1.01,.8-1.37,.51-1.68-1.26-3.65-2.09-5.73-2.39-1.25-.11-2.37,.79-2.52,2.04,0,1.47,1.21,2.59,4.36,3.88,3.16,1.29,8.09,3.67,8.09,9.11,0,4.11-3.55,8.27-9.45,8.27-3.29,.18-6.52-.93-9.01-3.08-.39-.39-.51-.55-.2-1.1Z"/><path class="cls-1" d="M153.33,27.9l-8.87-13.36c-.23-.34-.13-.8,.22-1.03,.13-.08,.27-.12,.42-.12h5.2c.26,0,.5,.14,.64,.35l5.61,8.2,5.57-8.2c.14-.22,.38-.36,.64-.35h5.2c.41,0,.75,.32,.76,.73,0,.15-.04,.3-.12,.42l-8.87,13.32v12.76c-.02,.41-.35,.74-.76,.76h-4.77c-.41,0-.75-.35-.75-.76l-.11-12.72Z"/><path class="cls-1" d="M181.38,14.16c0-.41,.32-.75,.73-.76,0,0,0,0,0,0h9.92c7.74,0,14.01,6.27,14.01,14s-6.27,14-14.01,14h-9.77c-.41-.02-.73-.35-.73-.76l-.14-26.47Zm10.09,21.26c4.48,0,8.1-3.63,8.1-8.1,0-4.47-3.63-8.09-8.1-8.09h-3.85v16.25l3.85-.05Z"/><path class="cls-1" d="M214.5,27.9l-8.87-13.36c-.23-.34-.13-.8,.22-1.03,.13-.08,.27-.12,.42-.12h5.27c.26,0,.51,.14,.66,.35l5.55,8.2,5.57-8.2c.14-.22,.38-.36,.64-.35h5.2c.41-.02,.76,.3,.78,.71,0,.16-.04,.31-.12,.44l-8.98,13.32v12.76c-.02,.41-.35,.74-.76,.76h-4.81c-.42,0-.76-.34-.76-.76v-12.72Z"/><path class="cls-1" d="M233.05,13.71c0-.41,.35-.74,.76-.73,0,0,0,0,0,0h.99l15.96,15.36h0V14.17c0-.42,.34-.76,.76-.76h4.79c.42,0,.75,.35,.76,.76v26.96c-.02,.4-.36,.72-.76,.71h-.64c-.18-.03-.36-.09-.51-.19l-15.81-15.94h0v14.92c0,.42-.34,.76-.76,.76h-4.75c-.41-.02-.74-.35-.76-.76l-.04-26.91Z"/><path class="cls-1" d="M260.51,40.34l12.52-26.91c.14-.26,.4-.42,.69-.44h.39c.29,.02,.55,.18,.67,.44l12.54,26.91c.18,.36,.03,.8-.33,.97-.11,.05-.24,.08-.36,.07h-4.43c-.73,0-1.05-.25-1.4-1.01l-1.44-3.15h-10.89l-1.44,3.19c-.22,.61-.81,1-1.45,.97h-4.38c-.39,.04-.74-.25-.78-.64-.01-.14,.02-.28,.08-.41Zm16.44-8.56l-3.03-6.59h0l-3.02,6.59h6.05Z"/><path class="cls-1" d="M294.32,13.62c.07-.36,.37-.62,.73-.64h.64c.28,.02,.53,.17,.67,.41l9.3,17.27h0l9.3-17.27c.15-.24,.4-.39,.67-.41h.64c.36,.02,.66,.28,.73,.64l4.52,26.88c.08,.4-.18,.79-.59,.87-.06,.01-.12,.02-.17,.01h-4.56c-.38-.01-.7-.28-.76-.66l-1.77-12.4h0l-6.72,12.95c-.15,.25-.4,.41-.69,.44h-.71c-.29-.02-.55-.19-.69-.44l-6.76-12.95h-.09l-1.77,12.4c-.05,.38-.38,.66-.76,.66h-4.72c-.41,.02-.76-.3-.78-.71,0-.06,0-.12,.01-.17l4.35-26.88Z"/><path class="cls-1" d="M326.57,14.16c.02-.41,.35-.74,.76-.76h4.82c.42,0,.75,.35,.76,.76v26.47c-.02,.41-.35,.74-.76,.76h-4.81c-.41-.02-.74-.35-.76-.76l-.02-26.47Z"/><path class="cls-1" d="M352.16,12.99c3.6-.11,7.09,1.23,9.69,3.72,.31,.26,.35,.71,.09,1.02-.03,.03-.06,.06-.09,.09l-3.09,3.24c-.27,.28-.72,.28-1,0,0,0,0,0,0,0-1.47-1.29-3.36-2.02-5.32-2.04-4.52,.21-8.02,4.04-7.81,8.56,.2,4.22,3.58,7.6,7.81,7.8,1.94,0,3.82-.68,5.32-1.91,.3-.27,.75-.27,1.05,0l3.12,3.31c.27,.31,.27,.77,0,1.08-2.61,2.53-6.11,3.92-9.74,3.88-7.96,.28-14.64-5.94-14.92-13.89-.28-7.95,5.95-14.62,13.91-14.9,.34-.01,.67-.01,1.01,0l-.02,.04Z"/><path class="cls-1" d="M365.38,37.59l1.88-3.31c.33-.42,.91-.52,1.37-.25,1.66,1.22,3.62,1.99,5.68,2.21,1.38,.14,2.62-.87,2.76-2.25,0-.05,0-.1,.01-.16,0-1.77-1.4-2.96-4.12-4.04-3.46-1.36-7.77-4.04-7.77-8.86,0-3.95,3.07-7.95,9.24-7.95,3.1,.08,6.1,1.14,8.57,3.01,.48,.27,.39,.99,.23,1.28l-2.04,3.08c-.27,.43-.99,.8-1.35,.51-1.68-1.26-3.65-2.08-5.73-2.39-1.25-.11-2.37,.79-2.52,2.04,0,1.47,1.19,2.59,4.36,3.88,3.18,1.29,8.09,3.67,8.09,9.11,0,4.11-3.55,8.27-9.45,8.27-3.29,.18-6.52-.93-9.01-3.08-.39-.39-.51-.55-.2-1.1Z"/><g><path class="cls-1" d="M392.14,15.25s-.11-.09-.21-.15c-.1-.06-.22-.13-.37-.19-.15-.06-.3-.11-.47-.15s-.34-.06-.52-.06c-.31,0-.54,.06-.7,.17-.15,.11-.23,.27-.23,.47,0,.12,.03,.21,.09,.29s.14,.14,.25,.2,.25,.11,.41,.16,.36,.1,.58,.15c.29,.07,.54,.15,.78,.24,.23,.08,.43,.19,.59,.32,.16,.13,.29,.28,.37,.46s.13,.4,.13,.65c0,.3-.06,.56-.18,.77s-.27,.39-.47,.52-.43,.23-.69,.29c-.26,.06-.54,.09-.82,.09-.44,0-.87-.06-1.3-.19s-.81-.31-1.15-.54l.5-.95c.05,.05,.14,.11,.27,.19,.13,.08,.28,.15,.45,.23,.18,.08,.37,.14,.58,.19,.21,.05,.43,.08,.65,.08,.62,0,.94-.19,.94-.58,0-.13-.04-.23-.11-.32s-.17-.16-.3-.22c-.13-.06-.29-.12-.47-.17-.19-.05-.39-.11-.62-.17-.28-.07-.52-.15-.73-.24-.2-.09-.38-.19-.51-.31-.14-.12-.24-.25-.31-.41s-.1-.35-.1-.56c0-.29,.05-.54,.16-.76s.26-.41,.46-.56c.19-.15,.42-.26,.68-.34,.26-.08,.53-.12,.83-.12,.41,0,.79,.06,1.13,.19,.34,.12,.64,.27,.9,.44l-.5,.89Z"/><path class="cls-1" d="M398.87,19.41v-3.73l-1.5,2.78h-.62l-1.5-2.78v3.73h-1.13v-5.64h1.21l1.72,3.21,1.74-3.21h1.21v5.64h-1.13Z"/></g></g></g></svg>